<svg xmlns="http://www.w3.org/2000/svg" fill="none" viewBox="-0.5 -0.5 48 48" id="Angry-Face-Hand-Drawn--Streamline-Memes.svg" height="48" width="48"><desc>Angry Face Hand Drawn Streamline Element: https://streamlinehq.com</desc><path fill="#000000" fill-rule="evenodd" d="M9.291382999999998 42.824144C5.25883 36.921132 3.494309 29.478305999999996 6.014684 21.521911C9.543773 9.972413 23.65745 5.6096379999999995 33.739044 11.512649999999999C44.072604999999996 17.672234999999997 46.59298 34.098124 38.779841 43.080717C38.527874 43.337289999999996 39.031808 43.594286 39.031808 43.337289999999996C47.096867 34.097654 44.828882 17.415708999999996 34.242931 10.999081C23.65745 4.582922999999999 8.617073999999999 9.202741 5.088407999999999 21.521911C2.568033 29.734408999999996 5.0069099999999995 37.434231 9.039463 43.337243C9.039463 43.337243 9.543349999999998 43.080717 9.291382999999998 42.824144Z" clip-rule="evenodd" stroke-width="1"></path><path fill="#000000" fill-rule="evenodd" d="M19.624944 19.725571C18.616653 18.955946 13.323936 10.742977999999999 0.7219669999999999 10.229409C0.7219669999999999 10.229409 0.47 10.229409 0.47 10.485982C0.47 10.999551 2.486488 10.229409 7.527284999999999 12.282321999999999C16.852555 15.619368999999999 19.372977 22.806092 20.381221 20.23914C21.137074999999996 18.185803999999997 18.86862 15.619368999999999 17.356489 14.079555C17.104522 13.822559 16.852601999999997 14.079555 17.104522 14.336128C18.364733 15.619368999999999 19.372977 16.902562999999997 19.877334 18.698902999999998C19.877334 18.698902999999998 19.877334 19.469044999999998 19.624944 19.726041Z" clip-rule="evenodd" stroke-width="1"></path><path fill="#000000" fill-rule="evenodd" d="M27.186116 11.255654C25.673985 14.335657999999999 27.690003 15.875425 32.226912999999996 11.255654C35.755109000000004 7.405931 41.047826 4.325927 46.34106 4.069354000000001C46.59298 4.069354000000001 46.59298 3.5562549999999997 46.34106 3.5562549999999997C43.064361 3.812827999999999 39.787614999999995 4.839496 37.01527299999999 6.379733C30.966701999999998 9.972413 30.966701999999998 12.795891 28.19389 13.565515999999999C27.690003 13.822088999999998 27.438035999999997 13.565515999999999 27.438035999999997 13.30899C27.186116 12.795891 27.690003 12.025749 27.941969999999998 11.512649999999999C27.690003 11.255654 27.186116 10.999081 27.186116 11.255654Z" clip-rule="evenodd" stroke-width="1"></path><path fill="#000000" fill-rule="evenodd" d="M16.096277999999998 17.928338C9.79527 15.618428999999999 5.510796999999999 22.291583 8.283138999999998 27.938069C10.551594 32.557886999999994 17.104522 33.070986 19.624944 27.167927C22.145318999999997 21.521441 17.356489 18.184864 16.852132 18.955005999999997V19.211579C19.876864 20.751815999999998 20.128830999999998 24.087923 18.86909 26.911400999999998C16.348667999999996 32.044318 10.803984 31.787744999999997 8.787495999999999 27.681072999999998C6.519041 22.804682 10.047706999999999 16.388571 15.844311 18.441436999999997C16.348667999999996 18.698433 16.348198 18.184864 16.096277999999998 17.928338Z" clip-rule="evenodd" stroke-width="1"></path><path fill="#000000" fill-rule="evenodd" d="M10.551124 23.061725C10.803514 24.088393 11.559838 24.858018 12.819579 23.83182C14.07979 22.548579 12.819579 20.495243 11.055481 21.265385C10.700819 21.420109 10.299157 22.03501 10.551124 23.061725Z" clip-rule="evenodd" stroke-width="1"></path><path fill="#000000" fill-rule="evenodd" d="M33.739044 14.592231C30.714311999999996 14.848756999999999 27.941969999999998 17.158666 26.681759 19.982143999999998C25.169628 23.83182 27.438083 28.194641999999998 31.722555999999997 28.451638C35.755109000000004 28.964736999999996 39.535695 25.115061 39.283728 21.008342C39.031808 18.441907 37.26771 15.875425 34.999255 15.10533C34.747288 15.10533 34.495368 15.362326 34.747288 15.618898999999997C37.015743 16.645567 38.300817 18.698902999999998 38.552783999999996 21.008812C38.804703999999994 24.601492 35.503612 28.194595 31.974476 27.681496C28.446326999999997 27.42497 26.429792 23.575246999999997 27.438035999999997 20.238246999999998C28.446279999999998 17.415239 30.966231999999998 15.362326 33.739044 15.10533C34.242931 14.848756999999999 34.242931 14.592231 33.739044 14.592231Z" clip-rule="evenodd" stroke-width="1"></path><path fill="#000000" fill-rule="evenodd" d="M33.788347 16.899836999999998C32.721118 17.262300999999997 32.730799999999995 19.725148 34.747288 19.468574999999998C36.511386 18.955005999999997 35.973893999999994 16.775475 34.461715999999996 16.775475C34.209796 16.775475 34.057798 16.775475 33.788347 16.899836999999998Z" clip-rule="evenodd" stroke-width="1"></path><path fill="#000000" fill-rule="evenodd" d="M32.47888 32.557886999999994C30.526828999999996 29.643651999999996 26.278264 26.876385999999997 22.032472 30.623366999999995C19.764487 32.419706999999995 17.104522 36.664559 18.86909 38.973998C20.128830999999998 40.770807999999995 22.649206 40.001135999999995 24.665740999999997 39.744139999999994C29.202604 38.717472 34.494898 38.204373 33.234687 33.841081C33.234687 33.584555 32.730799999999995 33.584555 32.730799999999995 33.841081C32.982767 35.124322 32.730799999999995 35.894464 32.226912999999996 36.407563C31.218669000000002 37.434701000000004 28.950214 37.690804 27.941969999999998 37.947799999999994C26.429792 38.204373 23.65745 38.973998 22.145318999999997 38.973998C18.364733 39.231041 18.112765999999997 35.894464 21.893352 31.787744999999997C25.421547999999998 27.938069 28.728186 29.323535 32.256852 32.65968899999999C32.323639 32.798761999999996 32.620256 32.769293 32.478832999999995 32.558357Z" clip-rule="evenodd" stroke-width="1"></path><path fill="#000000" fill-rule="evenodd" d="M28.446326999999997 32.044788000000004C28.19436 31.788215 27.186116 30.248448 26.429792 31.018073C26.177872 31.274645999999997 25.925904999999997 32.557886999999994 25.421547999999998 32.044788000000004C25.169628 31.788215 24.917661 31.531641999999998 24.413303999999997 31.274645999999997C23.65745 31.018073 23.65745 31.788215 23.65745 32.301784C23.153563 33.327982 22.649206 32.301784 22.145318999999997 31.531641999999998C22.145318999999997 31.274645999999997 21.640962 31.274645999999997 21.640962 31.788215C22.145318999999997 33.841081 23.65745 34.35465 24.413774 32.301314C24.665740999999997 32.301314 24.917661 32.814882999999995 25.169628 33.071456C25.925904999999997 33.327982 26.681759 32.557886999999994 26.933725999999997 31.788215C27.185646 31.788215 28.19389 33.584555 29.202181 32.301314C29.454100999999998 31.788215 29.706538 31.274645999999997 29.706538 30.761547C29.706538 30.761547 29.706538 30.504974 29.454100999999998 30.504974C29.202181 30.247977999999996 29.007789 31.531218999999997 28.446326999999997 32.044788000000004Z" clip-rule="evenodd" stroke-width="1"></path><path fill="#000000" fill-rule="evenodd" d="M29.958457999999997 36.408032999999996C29.706068 35.894464 29.202133999999997 35.637890999999996 28.698247 35.637890999999996C27.941969999999998 35.637890999999996 27.690003 36.15146 27.186116 36.664559C27.186116 36.664559 27.059921 36.921132 26.933725999999997 36.664559C26.681759 36.15146 26.177872 35.894464 25.673515 35.894464C24.917661 35.894464 24.413303999999997 36.408032999999996 24.161384 36.921555C24.057749 37.101189 23.985885999999997 37.129765 23.65745 36.921555C21.893399 36.15146 21.137074999999996 39.487567 21.640962 39.487567C22.145318999999997 39.487567 21.893399 38.717895 22.649676 37.691227C22.901173 37.178128 23.40506 37.177657999999994 23.65745 37.434701000000004C23.909416999999998 37.691227 24.161384 38.204325999999995 24.665694000000002 37.691227C25.169628 37.178128 25.673515 35.894887 26.177872 36.664559C26.681759 37.177657999999994 26.933725999999997 37.947799999999994 27.438035999999997 37.434701000000004C27.941969999999998 36.921132 28.446326999999997 35.894464 28.950214 36.407563C29.202133999999997 36.664559 29.215059 36.846966 29.454100999999998 37.177657999999994C29.706021 37.434701000000004 29.958457999999997 37.434701000000004 30.210378 37.177657999999994C30.462345 36.921132 30.385876 36.294716 30.889809999999997 36.038143C31.1422 36.038143 31.343453999999994 36.148686999999995 31.470588999999993 36.408032999999996C31.722555999999997 36.921132 31.974476 37.177704999999996 32.226912999999996 37.177704999999996C32.47888 37.177704999999996 32.47888 36.921132 31.722555999999997 35.894464C30.966231999999998 35.124792 30.462345 35.637890999999996 29.958457999999997 36.408032999999996Z" clip-rule="evenodd" stroke-width="1"></path></svg>